<svg width="17" height="17" viewBox="0 0 17 17" fill="none" xmlns="http://www.w3.org/2000/svg">
  <path d="M2.18203 0H14.8181C16.0182 0 17 0.888444 17 2.18184V14.8182C17 16.1116 16.0182 17 14.8181 17H2.18203C0.981662 17 0 16.1116 0 14.8182V2.18184C0 0.888444 0.981662 0 2.18203 0ZM12.3839 1.88877C11.9629 1.88877 11.6188 2.23298 11.6188 2.65416V4.48603C11.6188 4.90704 11.9629 5.25142 12.3839 5.25142H14.3053C14.7263 5.25142 15.0707 4.90704 15.0707 4.48603V2.65416C15.0707 2.23298 14.7263 1.88877 14.3053 1.88877H12.3839ZM15.0787 7.18924H13.5825C13.7241 7.65144 13.8007 8.14104 13.8007 8.64758C13.8007 11.4752 11.4345 13.7674 8.51623 13.7674C5.59813 13.7674 3.23229 11.4752 3.23229 8.64758C3.23229 8.1407 3.30875 7.65127 3.45048 7.18924H1.88914V14.3703C1.88914 14.7419 2.1932 15.0461 2.56499 15.0461H14.4032C14.775 15.0461 15.0791 14.7421 15.0791 14.3703V7.18924H15.0787ZM8.51606 5.1549C6.63058 5.1549 5.10189 6.63593 5.10189 8.46308C5.10189 10.2902 6.63058 11.7713 8.51606 11.7713C10.4017 11.7713 11.9306 10.2902 11.9306 8.46308C11.9306 6.63593 10.4019 5.1549 8.51606 5.1549Z" fill="white"/>
</svg>
